<svg width="17" height="17" viewBox="0 0 16 16" fill="none" xmlns="http://www.w3.org/2000/svg">
<path d="M14 3.98665C11.78 3.76665 9.54667 3.65332 7.32 3.65332C6 3.65332 4.68 3.71999 3.36 3.85332L2 3.98665" stroke="#f23218" stroke-width="1.5" stroke-linecap="round" stroke-linejoin="round"/>
<path d="M5.6665 3.3135L5.81317 2.44016C5.91984 1.80683 5.99984 1.3335 7.1265 1.3335H8.87317C9.99984 1.3335 10.0865 1.8335 10.1865 2.44683L10.3332 3.3135" stroke="#f23218" stroke-width="1.5" stroke-linecap="round" stroke-linejoin="round"/>
<path d="M12.5664 6.09326L12.1331 12.8066C12.0598 13.8533 11.9998 14.6666 10.1398 14.6666H5.85977C3.99977 14.6666 3.93977 13.8533 3.86644 12.8066L3.43311 6.09326" stroke="#f23218" stroke-width="1.5" stroke-linecap="round" stroke-linejoin="round"/>
<path d="M6.88672 11H9.10672" stroke="#f23218" stroke-width="1.5" stroke-linecap="round" stroke-linejoin="round"/>
<path d="M6.3335 8.3335H9.66683" stroke="#f23218" stroke-width="1.5" stroke-linecap="round" stroke-linejoin="round"/>
</svg>
